<mxfile host="app.diagrams.net" agent="Mozilla/5.0 (Windows NT 10.0; Win64; x64) AppleWebKit/537.36 (KHTML, like Gecko) Chrome/138.0.0.0 Safari/537.36" version="28.0.4">
  <diagram name="Page-1" id="8EFwenIWZtlpXYQPpVN0">
    <mxGraphModel dx="5018" dy="2432" grid="1" gridSize="10" guides="1" tooltips="1" connect="1" arrows="1" fold="1" page="1" pageScale="1" pageWidth="850" pageHeight="1100" math="0" shadow="0">
      <root>
        <mxCell id="0" />
        <mxCell id="1" parent="0" />
        <mxCell id="jSNsX78gBDLspI4zx6iW-1" value="&lt;div&gt;&lt;br&gt;&lt;/div&gt;" style="text;html=1;align=center;verticalAlign=middle;resizable=0;points=[];autosize=1;strokeColor=none;fillColor=none;" parent="1" vertex="1">
          <mxGeometry x="240" y="155" width="20" height="30" as="geometry" />
        </mxCell>
        <mxCell id="Jm-Krzo4dIuFre9nBl8H-1" value="ทบทวนสัญลักษณ์" style="swimlane;fontFamily=Sarabun;fontSource=https%3A%2F%2Ffonts.googleapis.com%2Fcss%3Ffamily%3DSarabun;" parent="1" vertex="1">
          <mxGeometry x="-720" y="20" width="650" height="290" as="geometry" />
        </mxCell>
        <mxCell id="Jm-Krzo4dIuFre9nBl8H-2" value="&lt;font data-font-src=&quot;https://fonts.googleapis.com/css?family=Sarabun&quot; face=&quot;Sarabun&quot;&gt;เริ่มต้น&lt;/font&gt;" style="ellipse;whiteSpace=wrap;html=1;" parent="Jm-Krzo4dIuFre9nBl8H-1" vertex="1">
          <mxGeometry x="20" y="40" width="130" height="30" as="geometry" />
        </mxCell>
        <mxCell id="Jm-Krzo4dIuFre9nBl8H-3" value="" style="endArrow=classic;html=1;rounded=0;" parent="Jm-Krzo4dIuFre9nBl8H-1" edge="1">
          <mxGeometry width="50" height="50" relative="1" as="geometry">
            <mxPoint x="84.5" y="70" as="sourcePoint" />
            <mxPoint x="84.5" y="120" as="targetPoint" />
          </mxGeometry>
        </mxCell>
        <mxCell id="Jm-Krzo4dIuFre9nBl8H-4" value="&lt;font face=&quot;Sarabun&quot;&gt;สิ้นสุด&lt;/font&gt;" style="ellipse;whiteSpace=wrap;html=1;" parent="Jm-Krzo4dIuFre9nBl8H-1" vertex="1">
          <mxGeometry x="150" y="90" width="130" height="30" as="geometry" />
        </mxCell>
        <mxCell id="Jm-Krzo4dIuFre9nBl8H-5" value="" style="endArrow=classic;html=1;rounded=0;" parent="Jm-Krzo4dIuFre9nBl8H-1" edge="1">
          <mxGeometry width="50" height="50" relative="1" as="geometry">
            <mxPoint x="214.5" y="40" as="sourcePoint" />
            <mxPoint x="214.5" y="90" as="targetPoint" />
          </mxGeometry>
        </mxCell>
        <mxCell id="Jm-Krzo4dIuFre9nBl8H-6" value="กระบวนการ" style="rounded=0;whiteSpace=wrap;html=1;fontFamily=Sarabun;fontSource=https%3A%2F%2Ffonts.googleapis.com%2Fcss%3Ffamily%3DSarabun;" parent="Jm-Krzo4dIuFre9nBl8H-1" vertex="1">
          <mxGeometry x="320" y="70" width="120" height="30" as="geometry" />
        </mxCell>
        <mxCell id="Jm-Krzo4dIuFre9nBl8H-7" value="" style="endArrow=classic;html=1;rounded=0;" parent="Jm-Krzo4dIuFre9nBl8H-1" edge="1">
          <mxGeometry width="50" height="50" relative="1" as="geometry">
            <mxPoint x="379" y="40" as="sourcePoint" />
            <mxPoint x="379.5" y="70" as="targetPoint" />
          </mxGeometry>
        </mxCell>
        <mxCell id="Jm-Krzo4dIuFre9nBl8H-8" value="" style="endArrow=classic;html=1;rounded=0;" parent="Jm-Krzo4dIuFre9nBl8H-1" edge="1">
          <mxGeometry width="50" height="50" relative="1" as="geometry">
            <mxPoint x="379.75" y="100" as="sourcePoint" />
            <mxPoint x="380.25" y="130" as="targetPoint" />
          </mxGeometry>
        </mxCell>
        <mxCell id="Jm-Krzo4dIuFre9nBl8H-9" value="ประโยคเงื่อนไข" style="rhombus;whiteSpace=wrap;html=1;fontFamily=Sarabun;fontSource=https%3A%2F%2Ffonts.googleapis.com%2Fcss%3Ffamily%3DSarabun;" parent="Jm-Krzo4dIuFre9nBl8H-1" vertex="1">
          <mxGeometry x="490" y="60" width="100" height="60" as="geometry" />
        </mxCell>
        <mxCell id="Jm-Krzo4dIuFre9nBl8H-10" value="" style="endArrow=classic;html=1;rounded=0;" parent="Jm-Krzo4dIuFre9nBl8H-1" edge="1">
          <mxGeometry width="50" height="50" relative="1" as="geometry">
            <mxPoint x="539.71" y="30" as="sourcePoint" />
            <mxPoint x="540.21" y="60" as="targetPoint" />
          </mxGeometry>
        </mxCell>
        <mxCell id="Jm-Krzo4dIuFre9nBl8H-11" value="" style="endArrow=classic;html=1;rounded=0;" parent="Jm-Krzo4dIuFre9nBl8H-1" edge="1">
          <mxGeometry width="50" height="50" relative="1" as="geometry">
            <mxPoint x="539.71" y="120" as="sourcePoint" />
            <mxPoint x="540" y="175" as="targetPoint" />
          </mxGeometry>
        </mxCell>
        <mxCell id="Jm-Krzo4dIuFre9nBl8H-12" value="จริง" style="edgeLabel;html=1;align=center;verticalAlign=middle;resizable=0;points=[];fontFamily=Sarabun;fontSource=https%3A%2F%2Ffonts.googleapis.com%2Fcss%3Ffamily%3DSarabun;" parent="Jm-Krzo4dIuFre9nBl8H-11" vertex="1" connectable="0">
          <mxGeometry x="-0.4142" y="-1" relative="1" as="geometry">
            <mxPoint as="offset" />
          </mxGeometry>
        </mxCell>
        <mxCell id="Jm-Krzo4dIuFre9nBl8H-13" value="" style="endArrow=classic;html=1;rounded=0;exitX=1;exitY=0.5;exitDx=0;exitDy=0;" parent="Jm-Krzo4dIuFre9nBl8H-1" source="Jm-Krzo4dIuFre9nBl8H-9" edge="1">
          <mxGeometry width="50" height="50" relative="1" as="geometry">
            <mxPoint x="620" y="95" as="sourcePoint" />
            <mxPoint x="610" y="175" as="targetPoint" />
            <Array as="points">
              <mxPoint x="610" y="90" />
            </Array>
          </mxGeometry>
        </mxCell>
        <mxCell id="Jm-Krzo4dIuFre9nBl8H-14" value="&lt;font data-font-src=&quot;https://fonts.googleapis.com/css?family=Sarabun&quot; face=&quot;Sarabun&quot;&gt;เท็จ&lt;/font&gt;" style="edgeLabel;html=1;align=center;verticalAlign=middle;resizable=0;points=[];" parent="Jm-Krzo4dIuFre9nBl8H-13" vertex="1" connectable="0">
          <mxGeometry x="-0.0019" y="-2" relative="1" as="geometry">
            <mxPoint as="offset" />
          </mxGeometry>
        </mxCell>
        <mxCell id="Jm-Krzo4dIuFre9nBl8H-15" value="&lt;font data-font-src=&quot;https://fonts.googleapis.com/css?family=Sarabun&quot; face=&quot;Sarabun&quot;&gt;ฟังก์ชัน/โมดูล&lt;/font&gt;" style="shape=process;whiteSpace=wrap;html=1;backgroundOutline=1;" parent="Jm-Krzo4dIuFre9nBl8H-1" vertex="1">
          <mxGeometry x="25" y="180" width="120" height="30" as="geometry" />
        </mxCell>
        <mxCell id="Jm-Krzo4dIuFre9nBl8H-16" value="" style="endArrow=classic;html=1;rounded=0;" parent="Jm-Krzo4dIuFre9nBl8H-1" edge="1">
          <mxGeometry width="50" height="50" relative="1" as="geometry">
            <mxPoint x="84.70999999999998" y="150" as="sourcePoint" />
            <mxPoint x="85.20999999999998" y="180" as="targetPoint" />
          </mxGeometry>
        </mxCell>
        <mxCell id="Jm-Krzo4dIuFre9nBl8H-17" value="" style="endArrow=classic;html=1;rounded=0;" parent="Jm-Krzo4dIuFre9nBl8H-1" edge="1">
          <mxGeometry width="50" height="50" relative="1" as="geometry">
            <mxPoint x="84.70999999999998" y="210" as="sourcePoint" />
            <mxPoint x="85.20999999999998" y="240" as="targetPoint" />
          </mxGeometry>
        </mxCell>
        <mxCell id="Jm-Krzo4dIuFre9nBl8H-18" value="" style="strokeWidth=2;html=1;shape=mxgraph.flowchart.start_2;whiteSpace=wrap;" parent="Jm-Krzo4dIuFre9nBl8H-1" vertex="1">
          <mxGeometry x="205" y="185" width="20" height="20" as="geometry" />
        </mxCell>
        <mxCell id="Jm-Krzo4dIuFre9nBl8H-19" value="" style="endArrow=classic;html=1;rounded=0;" parent="Jm-Krzo4dIuFre9nBl8H-1" edge="1">
          <mxGeometry width="50" height="50" relative="1" as="geometry">
            <mxPoint x="214.70999999999998" y="155" as="sourcePoint" />
            <mxPoint x="215.20999999999998" y="185" as="targetPoint" />
          </mxGeometry>
        </mxCell>
        <mxCell id="Jm-Krzo4dIuFre9nBl8H-20" value="" style="endArrow=classic;html=1;rounded=0;entryX=0;entryY=0.5;entryDx=0;entryDy=0;entryPerimeter=0;" parent="Jm-Krzo4dIuFre9nBl8H-1" target="Jm-Krzo4dIuFre9nBl8H-18" edge="1">
          <mxGeometry width="50" height="50" relative="1" as="geometry">
            <mxPoint x="189.99999999999997" y="155" as="sourcePoint" />
            <mxPoint x="190.49999999999997" y="185" as="targetPoint" />
            <Array as="points">
              <mxPoint x="190" y="180" />
            </Array>
          </mxGeometry>
        </mxCell>
        <mxCell id="Jm-Krzo4dIuFre9nBl8H-21" value="" style="endArrow=classic;html=1;rounded=0;entryX=1;entryY=0.5;entryDx=0;entryDy=0;entryPerimeter=0;" parent="Jm-Krzo4dIuFre9nBl8H-1" target="Jm-Krzo4dIuFre9nBl8H-18" edge="1">
          <mxGeometry width="50" height="50" relative="1" as="geometry">
            <mxPoint x="239.99999999999997" y="155" as="sourcePoint" />
            <mxPoint x="240.49999999999997" y="185" as="targetPoint" />
            <Array as="points">
              <mxPoint x="240" y="180" />
            </Array>
          </mxGeometry>
        </mxCell>
        <mxCell id="Jm-Krzo4dIuFre9nBl8H-22" value="" style="endArrow=classic;html=1;rounded=0;" parent="Jm-Krzo4dIuFre9nBl8H-1" edge="1">
          <mxGeometry width="50" height="50" relative="1" as="geometry">
            <mxPoint x="214.70999999999998" y="205" as="sourcePoint" />
            <mxPoint x="215.20999999999998" y="235" as="targetPoint" />
          </mxGeometry>
        </mxCell>
        <mxCell id="Jm-Krzo4dIuFre9nBl8H-23" value="&lt;font data-font-src=&quot;https://fonts.googleapis.com/css?family=Sarabun&quot; face=&quot;Sarabun&quot;&gt;ตัวเชื่อม&lt;/font&gt;" style="text;html=1;align=center;verticalAlign=middle;resizable=0;points=[];autosize=1;strokeColor=none;fillColor=none;" parent="Jm-Krzo4dIuFre9nBl8H-1" vertex="1">
          <mxGeometry x="220" y="190" width="60" height="30" as="geometry" />
        </mxCell>
        <mxCell id="Jm-Krzo4dIuFre9nBl8H-24" value="" style="endArrow=classic;html=1;rounded=0;" parent="Jm-Krzo4dIuFre9nBl8H-1" edge="1">
          <mxGeometry width="50" height="50" relative="1" as="geometry">
            <mxPoint x="353.71" y="165" as="sourcePoint" />
            <mxPoint x="354.21" y="195" as="targetPoint" />
          </mxGeometry>
        </mxCell>
        <mxCell id="Jm-Krzo4dIuFre9nBl8H-25" value="" style="verticalLabelPosition=bottom;verticalAlign=top;html=1;shape=offPageConnector;rounded=0;size=0.5;" parent="Jm-Krzo4dIuFre9nBl8H-1" vertex="1">
          <mxGeometry x="339" y="195" width="30" height="30" as="geometry" />
        </mxCell>
        <mxCell id="Jm-Krzo4dIuFre9nBl8H-26" value="" style="endArrow=classic;html=1;rounded=0;" parent="Jm-Krzo4dIuFre9nBl8H-1" edge="1">
          <mxGeometry width="50" height="50" relative="1" as="geometry">
            <mxPoint x="405.71" y="195" as="sourcePoint" />
            <mxPoint x="406.21" y="225" as="targetPoint" />
          </mxGeometry>
        </mxCell>
        <mxCell id="Jm-Krzo4dIuFre9nBl8H-27" value="" style="verticalLabelPosition=bottom;verticalAlign=top;html=1;shape=offPageConnector;rounded=0;size=0.5;" parent="Jm-Krzo4dIuFre9nBl8H-1" vertex="1">
          <mxGeometry x="391" y="165" width="30" height="30" as="geometry" />
        </mxCell>
        <mxCell id="Jm-Krzo4dIuFre9nBl8H-28" value="หน้าต่อไป" style="text;html=1;align=center;verticalAlign=middle;resizable=0;points=[];autosize=1;strokeColor=none;fillColor=none;fontFamily=Sarabun;fontSource=https%3A%2F%2Ffonts.googleapis.com%2Fcss%3Ffamily%3DSarabun;" parent="Jm-Krzo4dIuFre9nBl8H-1" vertex="1">
          <mxGeometry x="345" y="220" width="70" height="30" as="geometry" />
        </mxCell>
        <mxCell id="Jm-Krzo4dIuFre9nBl8H-29" value="ก" style="text;html=1;align=center;verticalAlign=middle;resizable=0;points=[];autosize=1;strokeColor=none;fillColor=none;fontFamily=Sarabun;fontSource=https%3A%2F%2Ffonts.googleapis.com%2Fcss%3Ffamily%3DSarabun;" parent="Jm-Krzo4dIuFre9nBl8H-1" vertex="1">
          <mxGeometry x="339" y="190" width="30" height="30" as="geometry" />
        </mxCell>
        <mxCell id="Jm-Krzo4dIuFre9nBl8H-30" value="ก" style="text;html=1;align=center;verticalAlign=middle;resizable=0;points=[];autosize=1;strokeColor=none;fillColor=none;fontFamily=Sarabun;fontSource=https%3A%2F%2Ffonts.googleapis.com%2Fcss%3Ffamily%3DSarabun;" parent="Jm-Krzo4dIuFre9nBl8H-1" vertex="1">
          <mxGeometry x="391" y="160" width="30" height="30" as="geometry" />
        </mxCell>
        <mxCell id="Jm-Krzo4dIuFre9nBl8H-31" value="แสดงผล/รับค่า" style="shape=parallelogram;perimeter=parallelogramPerimeter;whiteSpace=wrap;html=1;fixedSize=1;fontFamily=Sarabun;fontSource=https%3A%2F%2Ffonts.googleapis.com%2Fcss%3Ffamily%3DSarabun;" parent="Jm-Krzo4dIuFre9nBl8H-1" vertex="1">
          <mxGeometry x="450" y="210" width="120" height="30" as="geometry" />
        </mxCell>
        <mxCell id="Jm-Krzo4dIuFre9nBl8H-32" value="" style="endArrow=classic;html=1;rounded=0;" parent="Jm-Krzo4dIuFre9nBl8H-1" edge="1">
          <mxGeometry width="50" height="50" relative="1" as="geometry">
            <mxPoint x="509.71" y="180" as="sourcePoint" />
            <mxPoint x="510.21" y="210" as="targetPoint" />
          </mxGeometry>
        </mxCell>
        <mxCell id="Jm-Krzo4dIuFre9nBl8H-33" value="" style="endArrow=classic;html=1;rounded=0;" parent="Jm-Krzo4dIuFre9nBl8H-1" edge="1">
          <mxGeometry width="50" height="50" relative="1" as="geometry">
            <mxPoint x="509.71" y="240" as="sourcePoint" />
            <mxPoint x="510.21" y="270" as="targetPoint" />
          </mxGeometry>
        </mxCell>
        <mxCell id="Jm-Krzo4dIuFre9nBl8H-34" value="แก้ไขโจทย์ปัญหา" style="swimlane;fontFamily=Sarabun;fontSource=https%3A%2F%2Ffonts.googleapis.com%2Fcss%3Ffamily%3DSarabun;" parent="1" vertex="1">
          <mxGeometry x="-835" y="550" width="805" height="1440" as="geometry" />
        </mxCell>
        <mxCell id="Jm-Krzo4dIuFre9nBl8H-43" style="edgeStyle=orthogonalEdgeStyle;rounded=0;orthogonalLoop=1;jettySize=auto;html=1;entryX=0.5;entryY=0;entryDx=0;entryDy=0;" parent="Jm-Krzo4dIuFre9nBl8H-34" source="Jm-Krzo4dIuFre9nBl8H-35" target="Jm-Krzo4dIuFre9nBl8H-41" edge="1">
          <mxGeometry relative="1" as="geometry" />
        </mxCell>
        <mxCell id="Jm-Krzo4dIuFre9nBl8H-35" value="&lt;font data-font-src=&quot;https://fonts.googleapis.com/css?family=Sarabun&quot; face=&quot;Sarabun&quot;&gt;เริ่มต้น&lt;/font&gt;" style="ellipse;whiteSpace=wrap;html=1;" parent="Jm-Krzo4dIuFre9nBl8H-34" vertex="1">
          <mxGeometry x="310" y="60" width="130" height="30" as="geometry" />
        </mxCell>
        <mxCell id="Jm-Krzo4dIuFre9nBl8H-36" value="&lt;font face=&quot;Sarabun&quot;&gt;End&lt;/font&gt;" style="ellipse;whiteSpace=wrap;html=1;" parent="Jm-Krzo4dIuFre9nBl8H-34" vertex="1">
          <mxGeometry x="310" y="1370" width="130" height="30" as="geometry" />
        </mxCell>
        <mxCell id="wSEoYrfDwFZK6log2djo-2" style="edgeStyle=orthogonalEdgeStyle;rounded=0;orthogonalLoop=1;jettySize=auto;html=1;entryX=0.5;entryY=0;entryDx=0;entryDy=0;" edge="1" parent="Jm-Krzo4dIuFre9nBl8H-34" source="Jm-Krzo4dIuFre9nBl8H-41" target="wSEoYrfDwFZK6log2djo-1">
          <mxGeometry relative="1" as="geometry" />
        </mxCell>
        <mxCell id="Jm-Krzo4dIuFre9nBl8H-41" value="Customer contact" style="whiteSpace=wrap;html=1;" parent="Jm-Krzo4dIuFre9nBl8H-34" vertex="1">
          <mxGeometry x="315" y="120" width="120" height="20" as="geometry" />
        </mxCell>
        <mxCell id="wSEoYrfDwFZK6log2djo-6" style="edgeStyle=orthogonalEdgeStyle;rounded=0;orthogonalLoop=1;jettySize=auto;html=1;entryX=0.5;entryY=0;entryDx=0;entryDy=0;" edge="1" parent="Jm-Krzo4dIuFre9nBl8H-34" source="wSEoYrfDwFZK6log2djo-1" target="wSEoYrfDwFZK6log2djo-5">
          <mxGeometry relative="1" as="geometry" />
        </mxCell>
        <mxCell id="wSEoYrfDwFZK6log2djo-1" value="get details" style="shape=parallelogram;perimeter=parallelogramPerimeter;whiteSpace=wrap;html=1;fixedSize=1;" vertex="1" parent="Jm-Krzo4dIuFre9nBl8H-34">
          <mxGeometry x="315" y="160" width="120" height="30" as="geometry" />
        </mxCell>
        <mxCell id="wSEoYrfDwFZK6log2djo-9" style="edgeStyle=orthogonalEdgeStyle;rounded=0;orthogonalLoop=1;jettySize=auto;html=1;entryX=0.5;entryY=0;entryDx=0;entryDy=0;" edge="1" parent="Jm-Krzo4dIuFre9nBl8H-34" source="wSEoYrfDwFZK6log2djo-14" target="wSEoYrfDwFZK6log2djo-7">
          <mxGeometry relative="1" as="geometry" />
        </mxCell>
        <mxCell id="wSEoYrfDwFZK6log2djo-17" style="edgeStyle=orthogonalEdgeStyle;rounded=0;orthogonalLoop=1;jettySize=auto;html=1;" edge="1" parent="Jm-Krzo4dIuFre9nBl8H-34" source="wSEoYrfDwFZK6log2djo-5">
          <mxGeometry relative="1" as="geometry">
            <mxPoint x="375" y="310" as="targetPoint" />
          </mxGeometry>
        </mxCell>
        <mxCell id="wSEoYrfDwFZK6log2djo-5" value="appointed meeting" style="whiteSpace=wrap;html=1;" vertex="1" parent="Jm-Krzo4dIuFre9nBl8H-34">
          <mxGeometry x="315" y="220" width="120" height="30" as="geometry" />
        </mxCell>
        <mxCell id="wSEoYrfDwFZK6log2djo-11" style="edgeStyle=orthogonalEdgeStyle;rounded=0;orthogonalLoop=1;jettySize=auto;html=1;entryX=0.5;entryY=0;entryDx=0;entryDy=0;" edge="1" parent="Jm-Krzo4dIuFre9nBl8H-34" source="wSEoYrfDwFZK6log2djo-7" target="wSEoYrfDwFZK6log2djo-10">
          <mxGeometry relative="1" as="geometry" />
        </mxCell>
        <mxCell id="wSEoYrfDwFZK6log2djo-7" value="get deeper details on each parts" style="shape=parallelogram;perimeter=parallelogramPerimeter;whiteSpace=wrap;html=1;fixedSize=1;" vertex="1" parent="Jm-Krzo4dIuFre9nBl8H-34">
          <mxGeometry x="285" y="310" width="180" height="30" as="geometry" />
        </mxCell>
        <mxCell id="wSEoYrfDwFZK6log2djo-18" style="edgeStyle=orthogonalEdgeStyle;rounded=0;orthogonalLoop=1;jettySize=auto;html=1;entryX=1;entryY=0.5;entryDx=0;entryDy=0;" edge="1" parent="Jm-Krzo4dIuFre9nBl8H-34" source="wSEoYrfDwFZK6log2djo-10" target="wSEoYrfDwFZK6log2djo-14">
          <mxGeometry relative="1" as="geometry">
            <Array as="points">
              <mxPoint x="540" y="410" />
              <mxPoint x="540" y="275" />
            </Array>
          </mxGeometry>
        </mxCell>
        <mxCell id="wSEoYrfDwFZK6log2djo-21" style="edgeStyle=orthogonalEdgeStyle;rounded=0;orthogonalLoop=1;jettySize=auto;html=1;entryX=0.5;entryY=0;entryDx=0;entryDy=0;" edge="1" parent="Jm-Krzo4dIuFre9nBl8H-34" source="wSEoYrfDwFZK6log2djo-10" target="wSEoYrfDwFZK6log2djo-20">
          <mxGeometry relative="1" as="geometry" />
        </mxCell>
        <mxCell id="wSEoYrfDwFZK6log2djo-10" value="Enough details?" style="rhombus;whiteSpace=wrap;html=1;" vertex="1" parent="Jm-Krzo4dIuFre9nBl8H-34">
          <mxGeometry x="295" y="390" width="160" height="40" as="geometry" />
        </mxCell>
        <mxCell id="wSEoYrfDwFZK6log2djo-14" value="" style="ellipse;whiteSpace=wrap;html=1;aspect=fixed;" vertex="1" parent="Jm-Krzo4dIuFre9nBl8H-34">
          <mxGeometry x="370" y="270" width="10" height="10" as="geometry" />
        </mxCell>
        <mxCell id="wSEoYrfDwFZK6log2djo-19" value="No" style="text;html=1;align=center;verticalAlign=middle;resizable=0;points=[];autosize=1;strokeColor=none;fillColor=none;" vertex="1" parent="Jm-Krzo4dIuFre9nBl8H-34">
          <mxGeometry x="480" y="388" width="40" height="30" as="geometry" />
        </mxCell>
        <mxCell id="wSEoYrfDwFZK6log2djo-24" style="edgeStyle=orthogonalEdgeStyle;rounded=0;orthogonalLoop=1;jettySize=auto;html=1;entryX=0.5;entryY=0;entryDx=0;entryDy=0;" edge="1" parent="Jm-Krzo4dIuFre9nBl8H-34" source="wSEoYrfDwFZK6log2djo-38" target="wSEoYrfDwFZK6log2djo-23">
          <mxGeometry relative="1" as="geometry" />
        </mxCell>
        <mxCell id="wSEoYrfDwFZK6log2djo-41" style="edgeStyle=orthogonalEdgeStyle;rounded=0;orthogonalLoop=1;jettySize=auto;html=1;" edge="1" parent="Jm-Krzo4dIuFre9nBl8H-34" source="wSEoYrfDwFZK6log2djo-20">
          <mxGeometry relative="1" as="geometry">
            <mxPoint x="375" y="550" as="targetPoint" />
          </mxGeometry>
        </mxCell>
        <mxCell id="wSEoYrfDwFZK6log2djo-20" value="Send timeline and quotation for the customer" style="whiteSpace=wrap;html=1;" vertex="1" parent="Jm-Krzo4dIuFre9nBl8H-34">
          <mxGeometry x="290" y="460" width="170" height="30" as="geometry" />
        </mxCell>
        <mxCell id="wSEoYrfDwFZK6log2djo-22" value="Yes" style="text;html=1;align=center;verticalAlign=middle;resizable=0;points=[];autosize=1;strokeColor=none;fillColor=none;" vertex="1" parent="Jm-Krzo4dIuFre9nBl8H-34">
          <mxGeometry x="375" y="430" width="40" height="30" as="geometry" />
        </mxCell>
        <mxCell id="wSEoYrfDwFZK6log2djo-27" style="edgeStyle=orthogonalEdgeStyle;rounded=0;orthogonalLoop=1;jettySize=auto;html=1;entryX=0.5;entryY=0;entryDx=0;entryDy=0;" edge="1" parent="Jm-Krzo4dIuFre9nBl8H-34" source="wSEoYrfDwFZK6log2djo-23" target="wSEoYrfDwFZK6log2djo-26">
          <mxGeometry relative="1" as="geometry" />
        </mxCell>
        <mxCell id="wSEoYrfDwFZK6log2djo-29" style="edgeStyle=orthogonalEdgeStyle;rounded=0;orthogonalLoop=1;jettySize=auto;html=1;entryX=0;entryY=0.5;entryDx=0;entryDy=0;" edge="1" parent="Jm-Krzo4dIuFre9nBl8H-34" source="wSEoYrfDwFZK6log2djo-23">
          <mxGeometry relative="1" as="geometry">
            <mxPoint x="510" y="570" as="targetPoint" />
          </mxGeometry>
        </mxCell>
        <mxCell id="wSEoYrfDwFZK6log2djo-23" value="Customer accepted?" style="rhombus;whiteSpace=wrap;html=1;" vertex="1" parent="Jm-Krzo4dIuFre9nBl8H-34">
          <mxGeometry x="305" y="550" width="140" height="40" as="geometry" />
        </mxCell>
        <mxCell id="wSEoYrfDwFZK6log2djo-46" value="" style="edgeStyle=orthogonalEdgeStyle;rounded=0;orthogonalLoop=1;jettySize=auto;html=1;" edge="1" parent="Jm-Krzo4dIuFre9nBl8H-34" source="wSEoYrfDwFZK6log2djo-26" target="wSEoYrfDwFZK6log2djo-45">
          <mxGeometry relative="1" as="geometry" />
        </mxCell>
        <mxCell id="wSEoYrfDwFZK6log2djo-26" value="sign contract &amp;amp; early deposits" style="whiteSpace=wrap;html=1;" vertex="1" parent="Jm-Krzo4dIuFre9nBl8H-34">
          <mxGeometry x="315" y="620" width="120" height="30" as="geometry" />
        </mxCell>
        <mxCell id="wSEoYrfDwFZK6log2djo-28" value="Yes" style="text;html=1;align=center;verticalAlign=middle;resizable=0;points=[];autosize=1;strokeColor=none;fillColor=none;" vertex="1" parent="Jm-Krzo4dIuFre9nBl8H-34">
          <mxGeometry x="370" y="590" width="40" height="30" as="geometry" />
        </mxCell>
        <mxCell id="wSEoYrfDwFZK6log2djo-33" value="" style="edgeStyle=orthogonalEdgeStyle;rounded=0;orthogonalLoop=1;jettySize=auto;html=1;exitX=0.498;exitY=0.961;exitDx=0;exitDy=0;exitPerimeter=0;entryX=0.5;entryY=0;entryDx=0;entryDy=0;" edge="1" parent="Jm-Krzo4dIuFre9nBl8H-34" target="wSEoYrfDwFZK6log2djo-32">
          <mxGeometry relative="1" as="geometry">
            <mxPoint x="567.27" y="593.05" as="sourcePoint" />
            <mxPoint x="567.38" y="635" as="targetPoint" />
          </mxGeometry>
        </mxCell>
        <mxCell id="wSEoYrfDwFZK6log2djo-36" style="edgeStyle=orthogonalEdgeStyle;rounded=0;orthogonalLoop=1;jettySize=auto;html=1;entryX=0;entryY=0.5;entryDx=0;entryDy=0;" edge="1" parent="Jm-Krzo4dIuFre9nBl8H-34" target="wSEoYrfDwFZK6log2djo-35">
          <mxGeometry relative="1" as="geometry">
            <mxPoint x="625" y="570" as="sourcePoint" />
          </mxGeometry>
        </mxCell>
        <mxCell id="wSEoYrfDwFZK6log2djo-30" value="customer want to reconsider?" style="rhombus;whiteSpace=wrap;html=1;" vertex="1" parent="Jm-Krzo4dIuFre9nBl8H-34">
          <mxGeometry x="510" y="545" width="115" height="50" as="geometry" />
        </mxCell>
        <mxCell id="wSEoYrfDwFZK6log2djo-42" style="edgeStyle=orthogonalEdgeStyle;rounded=0;orthogonalLoop=1;jettySize=auto;html=1;entryX=1;entryY=0.5;entryDx=0;entryDy=0;" edge="1" parent="Jm-Krzo4dIuFre9nBl8H-34" source="wSEoYrfDwFZK6log2djo-32" target="wSEoYrfDwFZK6log2djo-38">
          <mxGeometry relative="1" as="geometry">
            <Array as="points">
              <mxPoint x="795" y="630" />
              <mxPoint x="795" y="515" />
            </Array>
          </mxGeometry>
        </mxCell>
        <mxCell id="wSEoYrfDwFZK6log2djo-32" value="New plan" style="whiteSpace=wrap;html=1;" vertex="1" parent="Jm-Krzo4dIuFre9nBl8H-34">
          <mxGeometry x="507.5" y="620" width="120" height="20" as="geometry" />
        </mxCell>
        <mxCell id="wSEoYrfDwFZK6log2djo-34" value="Yes" style="text;html=1;align=center;verticalAlign=middle;resizable=0;points=[];autosize=1;strokeColor=none;fillColor=none;" vertex="1" parent="Jm-Krzo4dIuFre9nBl8H-34">
          <mxGeometry x="560" y="590" width="40" height="30" as="geometry" />
        </mxCell>
        <mxCell id="wSEoYrfDwFZK6log2djo-35" value="&lt;font face=&quot;Sarabun&quot;&gt;stop&lt;/font&gt;" style="ellipse;whiteSpace=wrap;html=1;" vertex="1" parent="Jm-Krzo4dIuFre9nBl8H-34">
          <mxGeometry x="695" y="555" width="75" height="30" as="geometry" />
        </mxCell>
        <mxCell id="wSEoYrfDwFZK6log2djo-38" value="" style="ellipse;whiteSpace=wrap;html=1;" vertex="1" parent="Jm-Krzo4dIuFre9nBl8H-34">
          <mxGeometry x="370" y="510" width="10" height="10" as="geometry" />
        </mxCell>
        <mxCell id="wSEoYrfDwFZK6log2djo-44" value="no" style="text;html=1;align=center;verticalAlign=middle;resizable=0;points=[];autosize=1;strokeColor=none;fillColor=none;" vertex="1" parent="Jm-Krzo4dIuFre9nBl8H-34">
          <mxGeometry x="635" y="545" width="40" height="30" as="geometry" />
        </mxCell>
        <mxCell id="wSEoYrfDwFZK6log2djo-48" style="edgeStyle=orthogonalEdgeStyle;rounded=0;orthogonalLoop=1;jettySize=auto;html=1;entryX=0.5;entryY=0;entryDx=0;entryDy=0;" edge="1" parent="Jm-Krzo4dIuFre9nBl8H-34" source="wSEoYrfDwFZK6log2djo-45" target="wSEoYrfDwFZK6log2djo-47">
          <mxGeometry relative="1" as="geometry" />
        </mxCell>
        <mxCell id="wSEoYrfDwFZK6log2djo-45" value="Start project" style="whiteSpace=wrap;html=1;" vertex="1" parent="Jm-Krzo4dIuFre9nBl8H-34">
          <mxGeometry x="315" y="700" width="120" height="20" as="geometry" />
        </mxCell>
        <mxCell id="wSEoYrfDwFZK6log2djo-50" style="edgeStyle=orthogonalEdgeStyle;rounded=0;orthogonalLoop=1;jettySize=auto;html=1;entryX=0.5;entryY=0;entryDx=0;entryDy=0;" edge="1" parent="Jm-Krzo4dIuFre9nBl8H-34" source="wSEoYrfDwFZK6log2djo-60" target="wSEoYrfDwFZK6log2djo-49">
          <mxGeometry relative="1" as="geometry" />
        </mxCell>
        <mxCell id="wSEoYrfDwFZK6log2djo-63" style="edgeStyle=orthogonalEdgeStyle;rounded=0;orthogonalLoop=1;jettySize=auto;html=1;" edge="1" parent="Jm-Krzo4dIuFre9nBl8H-34" source="wSEoYrfDwFZK6log2djo-47">
          <mxGeometry relative="1" as="geometry">
            <mxPoint x="375" y="850" as="targetPoint" />
          </mxGeometry>
        </mxCell>
        <mxCell id="wSEoYrfDwFZK6log2djo-47" value="UI/UX design" style="whiteSpace=wrap;html=1;" vertex="1" parent="Jm-Krzo4dIuFre9nBl8H-34">
          <mxGeometry x="315" y="750" width="120" height="30" as="geometry" />
        </mxCell>
        <mxCell id="wSEoYrfDwFZK6log2djo-64" style="edgeStyle=orthogonalEdgeStyle;rounded=0;orthogonalLoop=1;jettySize=auto;html=1;entryX=1;entryY=0.5;entryDx=0;entryDy=0;" edge="1" parent="Jm-Krzo4dIuFre9nBl8H-34" source="wSEoYrfDwFZK6log2djo-55" target="wSEoYrfDwFZK6log2djo-60">
          <mxGeometry relative="1" as="geometry">
            <Array as="points">
              <mxPoint x="665" y="878" />
              <mxPoint x="665" y="815" />
            </Array>
          </mxGeometry>
        </mxCell>
        <mxCell id="wSEoYrfDwFZK6log2djo-55" value="Fix the design" style="whiteSpace=wrap;html=1;" vertex="1" parent="Jm-Krzo4dIuFre9nBl8H-34">
          <mxGeometry x="505" y="862.5" width="120" height="30" as="geometry" />
        </mxCell>
        <mxCell id="wSEoYrfDwFZK6log2djo-60" value="" style="ellipse;whiteSpace=wrap;html=1;" vertex="1" parent="Jm-Krzo4dIuFre9nBl8H-34">
          <mxGeometry x="370" y="810" width="10" height="10" as="geometry" />
        </mxCell>
        <mxCell id="wSEoYrfDwFZK6log2djo-53" style="edgeStyle=orthogonalEdgeStyle;rounded=0;orthogonalLoop=1;jettySize=auto;html=1;entryX=0;entryY=0.5;entryDx=0;entryDy=0;" edge="1" parent="Jm-Krzo4dIuFre9nBl8H-34" source="wSEoYrfDwFZK6log2djo-49">
          <mxGeometry relative="1" as="geometry">
            <mxPoint x="505.0000000000002" y="877.5" as="targetPoint" />
          </mxGeometry>
        </mxCell>
        <mxCell id="wSEoYrfDwFZK6log2djo-57" style="edgeStyle=orthogonalEdgeStyle;rounded=0;orthogonalLoop=1;jettySize=auto;html=1;entryX=0.5;entryY=0;entryDx=0;entryDy=0;" edge="1" parent="Jm-Krzo4dIuFre9nBl8H-34" source="wSEoYrfDwFZK6log2djo-49" target="wSEoYrfDwFZK6log2djo-56">
          <mxGeometry relative="1" as="geometry" />
        </mxCell>
        <mxCell id="wSEoYrfDwFZK6log2djo-49" value="Customer approve of the design?" style="rhombus;whiteSpace=wrap;html=1;" vertex="1" parent="Jm-Krzo4dIuFre9nBl8H-34">
          <mxGeometry x="305" y="850" width="140" height="55" as="geometry" />
        </mxCell>
        <mxCell id="wSEoYrfDwFZK6log2djo-66" value="" style="edgeStyle=orthogonalEdgeStyle;rounded=0;orthogonalLoop=1;jettySize=auto;html=1;" edge="1" parent="Jm-Krzo4dIuFre9nBl8H-34" source="wSEoYrfDwFZK6log2djo-56" target="wSEoYrfDwFZK6log2djo-65">
          <mxGeometry relative="1" as="geometry" />
        </mxCell>
        <mxCell id="wSEoYrfDwFZK6log2djo-56" value="Develop into a web" style="whiteSpace=wrap;html=1;" vertex="1" parent="Jm-Krzo4dIuFre9nBl8H-34">
          <mxGeometry x="315" y="942.5" width="120" height="20" as="geometry" />
        </mxCell>
        <mxCell id="wSEoYrfDwFZK6log2djo-58" value="Yes" style="text;html=1;align=center;verticalAlign=middle;resizable=0;points=[];autosize=1;strokeColor=none;fillColor=none;" vertex="1" parent="Jm-Krzo4dIuFre9nBl8H-34">
          <mxGeometry x="375" y="910.5" width="40" height="30" as="geometry" />
        </mxCell>
        <mxCell id="wSEoYrfDwFZK6log2djo-59" value="No" style="text;html=1;align=center;verticalAlign=middle;resizable=0;points=[];autosize=1;strokeColor=none;fillColor=none;" vertex="1" parent="Jm-Krzo4dIuFre9nBl8H-34">
          <mxGeometry x="455" y="850.5" width="40" height="30" as="geometry" />
        </mxCell>
        <mxCell id="wSEoYrfDwFZK6log2djo-67" style="edgeStyle=orthogonalEdgeStyle;rounded=0;orthogonalLoop=1;jettySize=auto;html=1;entryX=0.5;entryY=0;entryDx=0;entryDy=0;" edge="1" parent="Jm-Krzo4dIuFre9nBl8H-34" source="wSEoYrfDwFZK6log2djo-71" target="wSEoYrfDwFZK6log2djo-68">
          <mxGeometry relative="1" as="geometry">
            <mxPoint x="375.0000000000002" y="1050" as="targetPoint" />
          </mxGeometry>
        </mxCell>
        <mxCell id="wSEoYrfDwFZK6log2djo-74" style="edgeStyle=orthogonalEdgeStyle;rounded=0;orthogonalLoop=1;jettySize=auto;html=1;" edge="1" parent="Jm-Krzo4dIuFre9nBl8H-34" source="wSEoYrfDwFZK6log2djo-65">
          <mxGeometry relative="1" as="geometry">
            <mxPoint x="375" y="1050" as="targetPoint" />
          </mxGeometry>
        </mxCell>
        <mxCell id="wSEoYrfDwFZK6log2djo-65" value="Testing" style="whiteSpace=wrap;html=1;" vertex="1" parent="Jm-Krzo4dIuFre9nBl8H-34">
          <mxGeometry x="315" y="990" width="120" height="20" as="geometry" />
        </mxCell>
        <mxCell id="wSEoYrfDwFZK6log2djo-70" style="edgeStyle=orthogonalEdgeStyle;rounded=0;orthogonalLoop=1;jettySize=auto;html=1;entryX=0;entryY=0.5;entryDx=0;entryDy=0;" edge="1" parent="Jm-Krzo4dIuFre9nBl8H-34" source="wSEoYrfDwFZK6log2djo-68" target="wSEoYrfDwFZK6log2djo-69">
          <mxGeometry relative="1" as="geometry" />
        </mxCell>
        <mxCell id="wSEoYrfDwFZK6log2djo-77" value="" style="edgeStyle=orthogonalEdgeStyle;rounded=0;orthogonalLoop=1;jettySize=auto;html=1;entryX=0.5;entryY=0;entryDx=0;entryDy=0;" edge="1" parent="Jm-Krzo4dIuFre9nBl8H-34" source="wSEoYrfDwFZK6log2djo-68" target="wSEoYrfDwFZK6log2djo-78">
          <mxGeometry relative="1" as="geometry">
            <mxPoint x="375" y="1190" as="targetPoint" />
          </mxGeometry>
        </mxCell>
        <mxCell id="wSEoYrfDwFZK6log2djo-68" value="customer review approved?" style="rhombus;whiteSpace=wrap;html=1;" vertex="1" parent="Jm-Krzo4dIuFre9nBl8H-34">
          <mxGeometry x="310" y="1050" width="130" height="60" as="geometry" />
        </mxCell>
        <mxCell id="wSEoYrfDwFZK6log2djo-75" style="edgeStyle=orthogonalEdgeStyle;rounded=0;orthogonalLoop=1;jettySize=auto;html=1;entryX=1;entryY=0.5;entryDx=0;entryDy=0;" edge="1" parent="Jm-Krzo4dIuFre9nBl8H-34" source="wSEoYrfDwFZK6log2djo-69" target="wSEoYrfDwFZK6log2djo-71">
          <mxGeometry relative="1" as="geometry">
            <Array as="points">
              <mxPoint x="615" y="1080" />
              <mxPoint x="615" y="1025" />
            </Array>
          </mxGeometry>
        </mxCell>
        <mxCell id="wSEoYrfDwFZK6log2djo-69" value="Fix according to the feedback" style="whiteSpace=wrap;html=1;" vertex="1" parent="Jm-Krzo4dIuFre9nBl8H-34">
          <mxGeometry x="475" y="1065" width="120" height="30" as="geometry" />
        </mxCell>
        <mxCell id="wSEoYrfDwFZK6log2djo-71" value="" style="ellipse;whiteSpace=wrap;html=1;aspect=fixed;" vertex="1" parent="Jm-Krzo4dIuFre9nBl8H-34">
          <mxGeometry x="370" y="1020" width="10" height="10" as="geometry" />
        </mxCell>
        <mxCell id="wSEoYrfDwFZK6log2djo-81" style="edgeStyle=orthogonalEdgeStyle;rounded=0;orthogonalLoop=1;jettySize=auto;html=1;entryX=0.5;entryY=0;entryDx=0;entryDy=0;" edge="1" parent="Jm-Krzo4dIuFre9nBl8H-34" source="wSEoYrfDwFZK6log2djo-78" target="wSEoYrfDwFZK6log2djo-80">
          <mxGeometry relative="1" as="geometry" />
        </mxCell>
        <mxCell id="wSEoYrfDwFZK6log2djo-78" value="Deliver to the customer" style="whiteSpace=wrap;html=1;" vertex="1" parent="Jm-Krzo4dIuFre9nBl8H-34">
          <mxGeometry x="305" y="1140" width="140" height="30" as="geometry" />
        </mxCell>
        <mxCell id="wSEoYrfDwFZK6log2djo-84" style="edgeStyle=orthogonalEdgeStyle;rounded=0;orthogonalLoop=1;jettySize=auto;html=1;entryX=0.5;entryY=0;entryDx=0;entryDy=0;" edge="1" parent="Jm-Krzo4dIuFre9nBl8H-34" source="wSEoYrfDwFZK6log2djo-80" target="wSEoYrfDwFZK6log2djo-82">
          <mxGeometry relative="1" as="geometry" />
        </mxCell>
        <mxCell id="wSEoYrfDwFZK6log2djo-80" value="Final payment" style="whiteSpace=wrap;html=1;" vertex="1" parent="Jm-Krzo4dIuFre9nBl8H-34">
          <mxGeometry x="315" y="1200" width="120" height="20" as="geometry" />
        </mxCell>
        <mxCell id="wSEoYrfDwFZK6log2djo-85" style="edgeStyle=orthogonalEdgeStyle;rounded=0;orthogonalLoop=1;jettySize=auto;html=1;entryX=0.5;entryY=0;entryDx=0;entryDy=0;" edge="1" parent="Jm-Krzo4dIuFre9nBl8H-34" source="wSEoYrfDwFZK6log2djo-82" target="Jm-Krzo4dIuFre9nBl8H-36">
          <mxGeometry relative="1" as="geometry" />
        </mxCell>
        <mxCell id="wSEoYrfDwFZK6log2djo-87" value="" style="edgeStyle=orthogonalEdgeStyle;rounded=0;orthogonalLoop=1;jettySize=auto;html=1;" edge="1" parent="Jm-Krzo4dIuFre9nBl8H-34" source="wSEoYrfDwFZK6log2djo-82" target="wSEoYrfDwFZK6log2djo-86">
          <mxGeometry relative="1" as="geometry" />
        </mxCell>
        <mxCell id="wSEoYrfDwFZK6log2djo-82" value="Customer wants maintenance service?" style="rhombus;whiteSpace=wrap;html=1;" vertex="1" parent="Jm-Krzo4dIuFre9nBl8H-34">
          <mxGeometry x="315" y="1240" width="120" height="50" as="geometry" />
        </mxCell>
        <mxCell id="wSEoYrfDwFZK6log2djo-90" style="edgeStyle=orthogonalEdgeStyle;rounded=0;orthogonalLoop=1;jettySize=auto;html=1;entryX=1;entryY=0.5;entryDx=0;entryDy=0;" edge="1" parent="Jm-Krzo4dIuFre9nBl8H-34" source="wSEoYrfDwFZK6log2djo-86" target="Jm-Krzo4dIuFre9nBl8H-36">
          <mxGeometry relative="1" as="geometry">
            <Array as="points">
              <mxPoint x="575" y="1385" />
            </Array>
          </mxGeometry>
        </mxCell>
        <mxCell id="wSEoYrfDwFZK6log2djo-86" value="Sign contract for the service" style="whiteSpace=wrap;html=1;" vertex="1" parent="Jm-Krzo4dIuFre9nBl8H-34">
          <mxGeometry x="515" y="1242.5" width="120" height="45" as="geometry" />
        </mxCell>
        <mxCell id="wSEoYrfDwFZK6log2djo-88" value="Yes" style="text;html=1;align=center;verticalAlign=middle;resizable=0;points=[];autosize=1;strokeColor=none;fillColor=none;" vertex="1" parent="Jm-Krzo4dIuFre9nBl8H-34">
          <mxGeometry x="455" y="1240" width="40" height="30" as="geometry" />
        </mxCell>
        <mxCell id="wSEoYrfDwFZK6log2djo-43" value="No" style="text;html=1;align=center;verticalAlign=middle;resizable=0;points=[];autosize=1;strokeColor=none;fillColor=none;" vertex="1" parent="Jm-Krzo4dIuFre9nBl8H-34">
          <mxGeometry x="455" y="540" width="40" height="30" as="geometry" />
        </mxCell>
        <mxCell id="wSEoYrfDwFZK6log2djo-89" value="No" style="text;html=1;align=center;verticalAlign=middle;resizable=0;points=[];autosize=1;strokeColor=none;fillColor=none;" vertex="1" parent="Jm-Krzo4dIuFre9nBl8H-34">
          <mxGeometry x="325" y="1300" width="40" height="30" as="geometry" />
        </mxCell>
        <mxCell id="wSEoYrfDwFZK6log2djo-92" value="yes" style="text;html=1;align=center;verticalAlign=middle;resizable=0;points=[];autosize=1;strokeColor=none;fillColor=none;" vertex="1" parent="Jm-Krzo4dIuFre9nBl8H-34">
          <mxGeometry x="375" y="1110" width="40" height="30" as="geometry" />
        </mxCell>
        <mxCell id="Jm-Krzo4dIuFre9nBl8H-37" value="&lt;font data-font-src=&quot;https://fonts.googleapis.com/css?family=Sarabun&quot; face=&quot;Sarabun&quot;&gt;โจทย์ปัญหา&lt;/font&gt;" style="swimlane;whiteSpace=wrap;html=1;" parent="1" vertex="1">
          <mxGeometry x="-732.5" y="340" width="675" height="190" as="geometry" />
        </mxCell>
        <mxCell id="Jm-Krzo4dIuFre9nBl8H-38" value="&lt;p style=&quot;line-height: 120%;&quot;&gt;&lt;font data-font-src=&quot;https://fonts.googleapis.com/css?family=Sarabun&quot; face=&quot;Sarabun&quot; style=&quot;font-size: 14px;&quot;&gt;&lt;b&gt;&lt;u&gt;โจทย์&lt;/u&gt;&lt;/b&gt; จงเขียน Flowchart เพื่ออธิบายกระบวนการในการรับงานทำเว็บไซต์จากลูกค้า&lt;br&gt;&amp;nbsp; &amp;nbsp; &amp;nbsp; &amp;nbsp; &amp;nbsp; (ดูตัวอย่างได้จากเว็บไซท์ https://www.fastwork.com)&lt;br&gt;&lt;/font&gt;&lt;br&gt;&lt;/p&gt;&lt;p style=&quot;line-height: 120%;&quot;&gt;&lt;font face=&quot;Sarabun&quot;&gt;&lt;b&gt;&lt;u&gt;หมายเหตุ&lt;/u&gt;&lt;/b&gt;&amp;nbsp;ควรมีขั้นตอนครบถ้วน เปรียบเสมือนตัวคุณเอง ที่กำลังอยากเริ่มต้นรับงานทำเว็บไซต์จากลูกค้าของคุณเอง&lt;br&gt;&amp;nbsp; &amp;nbsp; &amp;nbsp; &amp;nbsp; คุณจะต้องคำนึงถึงขั้นตอนทุกอย่างให้รอบคอบตั้งแต่การโพสหางาน การพูดคุยเพื่อคัดกรองลูกค้า&lt;br&gt;&amp;nbsp; &amp;nbsp; &amp;nbsp; &amp;nbsp; การพูดคุยเรื่องความต้องการของลูกค้าเป็นข้อๆให้ชัดเจน การเซ็นต์สัญญารับงาน การรับเงินล่วงหน้าก่อน ฯลฯ&lt;/font&gt;&lt;/p&gt;" style="text;html=1;align=left;verticalAlign=top;resizable=0;points=[];autosize=1;strokeColor=none;fillColor=none;fontSize=14;" parent="Jm-Krzo4dIuFre9nBl8H-37" vertex="1">
          <mxGeometry x="15" y="20" width="660" height="160" as="geometry" />
        </mxCell>
        <mxCell id="wSEoYrfDwFZK6log2djo-91" value="no" style="text;html=1;align=center;verticalAlign=middle;resizable=0;points=[];autosize=1;strokeColor=none;fillColor=none;" vertex="1" parent="1">
          <mxGeometry x="-400" y="1538" width="40" height="30" as="geometry" />
        </mxCell>
      </root>
    </mxGraphModel>
  </diagram>
</mxfile>
